<svg width="158" height="36" viewBox="0 0 158 36" fill="none" xmlns="http://www.w3.org/2000/svg">
<g style="mix-blend-mode:darken">
<path d="M72.1877 6.24583C71.3015 5.60608 70.3295 5.11865 69.329 4.84447C68.2999 4.53982 67.3851 4.41797 66.5275 4.41797H57.8086V6.1849H60.3242V33.4505H57.8086V35.2174H66.0701V33.4505H61.9822V20.7164H66.5847C69.4148 20.7164 71.5873 19.9548 73.1024 18.462C74.6175 16.9693 75.3608 14.9586 75.3608 12.4301C75.3608 10.9983 75.0463 9.74923 74.446 8.74391C73.8171 7.70812 73.0738 6.88558 72.1877 6.24583ZM73.3597 14.654C73.131 15.4156 72.7308 16.1163 72.1877 16.756C71.6159 17.3958 70.8441 17.9441 69.9007 18.3402C68.9574 18.7667 67.7567 18.9495 66.2988 18.9495H61.9822V6.15444H66.356C67.3851 6.15444 68.3285 6.33722 69.2432 6.67233C70.1294 7.00744 70.9298 7.4644 71.5873 8.07369C72.2448 8.65251 72.7594 9.3532 73.1596 10.1148C73.5312 10.8764 73.7313 11.6685 73.7313 12.491C73.7027 13.1612 73.5884 13.8924 73.3597 14.654Z" fill="#FFFF00"/>
<path d="M92.77 18.3927H91.2835C91.255 19.0325 91.2264 19.6722 91.1692 20.3424C91.112 20.9822 91.112 21.6219 91.112 22.2922C90.9119 21.8047 90.626 21.2868 90.2258 20.7689C89.8256 20.251 89.3397 19.7941 88.7679 19.398C88.1962 19.002 87.5387 18.6669 86.8526 18.4232C86.1379 18.1795 85.3947 18.0576 84.5943 18.0576C83.4794 18.0576 82.4217 18.2709 81.4497 18.7278C80.4778 19.1848 79.6202 19.7941 78.8769 20.5862C78.1623 21.3782 77.5905 22.2617 77.1617 23.2975C76.7329 24.3333 76.5328 25.43 76.5328 26.6181C76.5328 27.8062 76.7329 28.9334 77.1617 29.9692C77.5905 31.005 78.1623 31.9189 78.8769 32.6805C79.5916 33.4421 80.4492 34.0514 81.4497 34.5084C82.4217 34.9653 83.4794 35.1786 84.5943 35.1786C85.4233 35.1786 86.1951 35.0567 86.9098 34.813C87.6245 34.5693 88.2819 34.2646 88.8251 33.8991C89.3968 33.5335 89.8542 33.0765 90.2544 32.5891C90.6546 32.1017 90.9405 31.5838 91.1406 31.0964C91.1406 31.4315 91.1406 31.7361 91.112 32.0712C91.112 32.4063 91.0834 32.7414 91.0834 33.107V34.8739H95.8002V33.107H92.7415V18.3927H92.77ZM90.4545 29.299C90.1115 30.1215 89.6827 30.8526 89.0824 31.4619C88.5106 32.0712 87.8246 32.5586 87.0527 32.9242C86.2809 33.2898 85.4519 33.4421 84.5371 33.4421C83.6223 33.4421 82.7933 33.2593 81.9929 32.9242C81.221 32.5586 80.535 32.0712 79.9632 31.4619C79.3915 30.8526 78.9627 30.1215 78.6197 29.299C78.2766 28.4764 78.1337 27.593 78.1337 26.6486C78.1337 25.7042 78.3052 24.8207 78.6197 23.9677C78.9627 23.1147 79.3915 22.414 79.9632 21.7743C80.535 21.165 81.1925 20.6775 81.9929 20.312C82.7647 19.9464 83.6223 19.7941 84.5371 19.7941C85.4519 19.7941 86.2809 19.9769 87.0527 20.312C87.8246 20.6775 88.5106 21.165 89.0824 21.7743C89.6541 22.3835 90.1115 23.1147 90.4545 23.9677C90.7976 24.8207 90.9405 25.7042 90.9405 26.6486C90.9405 27.593 90.769 28.4764 90.4545 29.299Z" fill="#FFFF00"/>
<path d="M103.461 23.1281C103.461 22.6407 103.461 22.1837 103.433 21.7572C103.404 21.3612 103.376 20.9042 103.347 20.3863L103.318 18.8327H98.9732V20.5996H101.946V33.5774H98.7159V35.3443H106.634V33.5774H103.576V26.2964C103.576 25.4434 103.747 24.6513 104.062 23.9202C104.405 23.1891 104.833 22.5493 105.405 22.0314C105.977 21.5135 106.634 21.087 107.406 20.7824C108.178 20.4777 108.979 20.295 109.865 20.2645L109.979 18.4976C108.693 18.528 107.463 18.9545 106.234 19.7466C105.005 20.5691 104.09 21.6963 103.461 23.1281Z" fill="#FFFF00"/>
<path d="M117.64 23.1281C117.64 22.6407 117.64 22.1837 117.612 21.7572C117.583 21.3612 117.555 20.9042 117.526 20.3863L117.497 18.8327H113.152V20.5996H116.125V33.5774H112.895V35.3443H120.814V33.5774H117.755V26.2964C117.755 25.4434 117.926 24.6513 118.241 23.9202C118.584 23.1891 119.013 22.5493 119.584 22.0314C120.156 21.5135 120.814 21.087 121.585 20.7824C122.357 20.4777 123.158 20.295 124.044 20.2645L124.158 18.4976C122.872 18.528 121.643 18.9545 120.413 19.7466C119.213 20.5691 118.269 21.6963 117.64 23.1281Z" fill="#FFFF00"/>
<path d="M140.996 20.5862C140.252 19.8245 139.395 19.1848 138.394 18.7278C137.394 18.2709 136.336 18.0576 135.221 18.0576C134.106 18.0576 133.049 18.2709 132.077 18.7278C131.105 19.1848 130.247 19.7941 129.532 20.5862C128.789 21.3782 128.217 22.2922 127.789 23.3279C127.36 24.3942 127.16 25.4909 127.16 26.679C127.16 27.8671 127.36 28.9943 127.789 30.0301C128.217 31.0659 128.789 31.9798 129.532 32.7414C130.247 33.503 131.105 34.1123 132.077 34.5693C133.049 35.0263 134.106 35.2395 135.221 35.2395C136.336 35.2395 137.394 35.0263 138.394 34.5693C139.395 34.1123 140.252 33.503 140.996 32.7414C141.739 31.9798 142.311 31.0659 142.739 30.0301C143.168 28.9943 143.368 27.8671 143.368 26.679C143.368 25.5214 143.168 24.3942 142.739 23.3279C142.311 22.2922 141.739 21.3782 140.996 20.5862ZM141.081 29.3294C140.738 30.152 140.281 30.8831 139.709 31.4924C139.137 32.1017 138.451 32.5891 137.651 32.9547C136.851 33.3203 136.022 33.4726 135.135 33.4726C134.249 33.4726 133.42 33.2898 132.648 32.9547C131.876 32.5891 131.19 32.1017 130.619 31.4924C130.047 30.8831 129.59 30.152 129.246 29.3294C128.903 28.5069 128.761 27.6234 128.761 26.679C128.761 25.7346 128.932 24.8512 129.246 24.0286C129.59 23.2061 130.047 22.4749 130.619 21.8657C131.19 21.2564 131.876 20.7385 132.648 20.3729C133.42 20.0073 134.249 19.8245 135.135 19.8245C136.022 19.8245 136.851 20.0073 137.651 20.3729C138.451 20.7385 139.109 21.2259 139.709 21.8657C140.281 22.4749 140.738 23.2061 141.081 24.0286C141.424 24.8512 141.567 25.7346 141.567 26.679C141.567 27.6234 141.396 28.5069 141.081 29.3294Z" fill="#FFFF00"/>
<path d="M156.261 20.4284V18.6614H151.516V7.93799H149.858V18.6614H146.284V20.4284H149.858V35.1426H154.889V33.4062H151.516V20.4284H156.261Z" fill="#FFFF00"/>
</g>
<g style="mix-blend-mode:darken">
<path d="M72.6737 6.24583C71.7876 5.60608 70.8156 5.11865 69.8151 4.84447C68.786 4.53982 67.8712 4.41797 67.0136 4.41797H58.2947V6.1849H60.8103V33.4505H58.2947V35.2174H66.5562V33.4505H62.4683V20.7164H67.0708C69.9008 20.7164 72.0734 19.9548 73.5885 18.462C75.1036 16.9693 75.8469 14.9586 75.8469 12.4301C75.8469 10.9983 75.5324 9.74923 74.9321 8.74391C74.3318 7.70812 73.5885 6.88558 72.6737 6.24583ZM73.8458 14.654C73.6171 15.4156 73.2169 16.1163 72.6737 16.756C72.102 17.3958 71.3302 17.9441 70.3868 18.3402C69.4435 18.7667 68.2428 18.9495 66.7849 18.9495H62.4683V6.15444H66.8421C67.8712 6.15444 68.8146 6.33722 69.7293 6.67233C70.6155 7.00744 71.4159 7.4644 72.0734 8.07369C72.7309 8.65251 73.2455 9.3532 73.6457 10.1148C74.0173 10.8764 74.2174 11.6685 74.2174 12.491C74.1888 13.1612 74.0745 13.8924 73.8458 14.654Z" fill="#00AEEF"/>
<path d="M93.256 18.3927H91.7695C91.7409 19.0325 91.7123 19.6722 91.6551 20.3424C91.598 20.9822 91.598 21.6219 91.598 22.2922C91.3979 21.8047 91.112 21.2868 90.7118 20.7689C90.3116 20.251 89.8256 19.7941 89.2539 19.398C88.6821 19.002 88.0246 18.6669 87.3386 18.4232C86.6239 18.1795 85.8806 18.0576 85.0802 18.0576C83.9653 18.0576 82.9076 18.2709 81.9357 18.7278C80.9637 19.1848 80.1061 19.7941 79.3629 20.5862C78.6482 21.3782 78.0765 22.2617 77.6477 23.2975C77.2189 24.3333 77.0188 25.43 77.0188 26.6181C77.0188 27.8062 77.2189 28.9334 77.6477 29.9692C78.0765 31.005 78.6482 31.9189 79.3629 32.6805C80.0776 33.4421 80.9352 34.0514 81.9357 34.5084C82.9076 34.9653 83.9653 35.1786 85.0802 35.1786C85.9092 35.1786 86.6811 35.0567 87.3957 34.813C88.1104 34.5693 88.7679 34.2646 89.311 33.8991C89.8828 33.5335 90.3402 33.0765 90.7404 32.5891C91.1406 32.1017 91.4265 31.5838 91.6266 31.0963C91.6266 31.4315 91.6266 31.7361 91.598 32.0712C91.598 32.4063 91.5694 32.7414 91.5694 33.107V34.8739H96.2862V33.107H93.2274V18.3927H93.256ZM90.9405 29.299C90.5974 30.1215 90.1686 30.8526 89.5683 31.4619C88.9966 32.0712 88.3105 32.5586 87.5387 32.9242C86.7668 33.2898 85.9378 33.4421 85.0231 33.4421C84.1083 33.4421 83.2793 33.2593 82.4788 32.9242C81.707 32.5586 81.0209 32.0712 80.4492 31.4619C79.8775 30.8526 79.4487 30.1215 79.1056 29.299C78.7626 28.4764 78.6197 27.5929 78.6197 26.6486C78.6197 25.7042 78.7912 24.8207 79.1056 23.9677C79.4487 23.1147 79.8775 22.414 80.4492 21.7743C81.0209 21.165 81.6784 20.6775 82.4788 20.312C83.2507 19.9464 84.1083 19.7941 85.0231 19.7941C85.9378 19.7941 86.7668 19.9769 87.5387 20.312C88.3105 20.6775 88.9966 21.165 89.5683 21.7743C90.1401 22.3835 90.5974 23.1147 90.9405 23.9677C91.2835 24.8207 91.4264 25.7042 91.4264 26.6486C91.455 27.5929 91.2835 28.4764 90.9405 29.299Z" fill="#00AEEF"/>
<path d="M103.947 23.1281C103.947 22.6407 103.947 22.1837 103.919 21.7572C103.89 21.3612 103.862 20.9042 103.833 20.3863L103.804 18.8327H99.4593V20.5996H102.432V33.5774H99.202V35.3443H107.121V33.5774H104.062V26.2964C104.062 25.4434 104.233 24.6513 104.548 23.9202C104.891 23.1891 105.32 22.5493 105.891 22.0314C106.463 21.5135 107.121 21.087 107.892 20.7824C108.664 20.4777 109.465 20.295 110.351 20.2645L110.465 18.4976C109.179 18.528 107.95 18.9545 106.72 19.7466C105.52 20.5691 104.576 21.6963 103.947 23.1281Z" fill="#00AEEF"/>
<path d="M118.126 23.1281C118.126 22.6407 118.126 22.1837 118.098 21.7572C118.069 21.3612 118.041 20.9042 118.012 20.3863L117.983 18.8327H113.638V20.5996H116.611V33.5774H113.381V35.3443H121.299V33.5774H118.241V26.2964C118.241 25.4434 118.412 24.6513 118.727 23.9202C119.07 23.1891 119.499 22.5493 120.07 22.0314C120.642 21.5135 121.299 21.087 122.071 20.7824C122.843 20.4777 123.644 20.295 124.53 20.2645L124.644 18.4976C123.358 18.528 122.128 18.9545 120.899 19.7466C119.699 20.5691 118.784 21.6963 118.126 23.1281Z" fill="#00AEEF"/>
<path d="M141.482 20.5862C140.738 19.8245 139.881 19.1848 138.88 18.7278C137.88 18.2709 136.822 18.0576 135.707 18.0576C134.592 18.0576 133.535 18.2709 132.563 18.7278C131.591 19.1848 130.733 19.7941 130.018 20.5862C129.275 21.3782 128.703 22.2922 128.275 23.3279C127.846 24.3942 127.646 25.4909 127.646 26.679C127.646 27.8671 127.846 28.9943 128.275 30.0301C128.703 31.0659 129.275 31.9798 130.018 32.7414C130.733 33.503 131.591 34.1123 132.563 34.5693C133.535 35.0262 134.592 35.2395 135.707 35.2395C136.822 35.2395 137.88 35.0262 138.88 34.5693C139.881 34.1123 140.738 33.503 141.482 32.7414C142.225 31.9798 142.797 31.0659 143.225 30.0301C143.654 28.9943 143.854 27.8671 143.854 26.679C143.854 25.5214 143.654 24.3942 143.225 23.3279C142.825 22.2922 142.225 21.3782 141.482 20.5862ZM141.567 29.3294C141.224 30.152 140.767 30.8831 140.195 31.4924C139.624 32.1017 138.937 32.5891 138.137 32.9547C137.337 33.3202 136.508 33.4726 135.621 33.4726C134.735 33.4726 133.906 33.2898 133.134 32.9547C132.363 32.5891 131.676 32.1017 131.105 31.4924C130.533 30.8831 130.076 30.152 129.733 29.3294C129.39 28.5069 129.247 27.6234 129.247 26.679C129.247 25.7346 129.418 24.8512 129.733 24.0286C130.076 23.2061 130.533 22.4749 131.105 21.8657C131.676 21.2564 132.363 20.7385 133.134 20.3729C133.906 20.0073 134.735 19.8245 135.621 19.8245C136.508 19.8245 137.337 20.0073 138.137 20.3729C138.937 20.7385 139.595 21.2259 140.195 21.8657C140.767 22.4749 141.224 23.2061 141.567 24.0286C141.91 24.8512 142.053 25.7346 142.053 26.679C142.053 27.6234 141.91 28.5069 141.567 29.3294Z" fill="#00AEEF"/>
<path d="M156.747 20.4284V18.6614H152.002V7.93799H150.343V18.6614H146.77V20.4284H150.343V35.1426H155.403V33.4062H152.002V20.4284H156.747Z" fill="#00AEEF"/>
</g>
<g style="mix-blend-mode:darken">
<path d="M73.1025 6.24583C72.2163 5.60608 71.2443 5.11865 70.2438 4.84447C69.2147 4.53982 68.2999 4.41797 67.4423 4.41797H58.7234V6.1849H61.239V33.4505H58.7234V35.2174H66.9849V33.4505H62.897V20.7164H67.4995C70.3296 20.7164 72.5021 19.9548 74.0172 18.462C75.5323 16.9693 76.2756 14.9586 76.2756 12.4301C76.2756 10.9983 75.9611 9.74923 75.3608 8.74391C74.7605 7.70812 74.0172 6.88558 73.1025 6.24583ZM74.2745 14.654C74.0458 15.4156 73.6456 16.1163 73.1025 16.756C72.5307 17.3958 71.7589 17.9441 70.8155 18.3402C69.8722 18.7667 68.6715 18.9495 67.2136 18.9495H62.897V6.15444H67.2708C68.2999 6.15444 69.2433 6.33722 70.158 6.67233C71.0442 7.00744 71.8446 7.4644 72.5021 8.07369C73.1596 8.65251 73.6742 9.3532 74.0744 10.1148C74.446 10.8764 74.6461 11.6685 74.6461 12.491C74.6175 13.1612 74.5032 13.8924 74.2745 14.654Z" fill="#FF00FF"/>
<path d="M93.8635 18.3927H92.377C92.3484 19.0325 92.3199 19.6722 92.2627 20.3424C92.2055 20.9822 92.2055 21.6219 92.2055 22.2922C92.0054 21.8047 91.7195 21.2868 91.3193 20.7689C90.9191 20.251 90.4331 19.7941 89.8614 19.398C89.2897 19.002 88.6322 18.6669 87.9461 18.4232C87.2314 18.1795 86.4882 18.0576 85.6878 18.0576C84.5729 18.0576 83.5152 18.2709 82.5432 18.7278C81.5713 19.1848 80.7137 19.7941 79.9704 20.5862C79.2558 21.3782 78.684 22.2617 78.2552 23.2975C77.8264 24.3333 77.6263 25.43 77.6263 26.6181C77.6263 27.8062 77.8264 28.9334 78.2552 29.9692C78.684 31.005 79.2558 31.9189 79.9704 32.6805C80.6851 33.4421 81.5427 34.0514 82.5432 34.5084C83.5152 34.9653 84.5729 35.1786 85.6878 35.1786C86.5168 35.1786 87.2886 35.0567 88.0033 34.813C88.7179 34.5693 89.3754 34.2646 89.9186 33.8991C90.4903 33.5335 90.9477 33.0765 91.3479 32.5891C91.7481 32.1017 92.034 31.5838 92.2341 31.0963C92.2341 31.4315 92.2341 31.7361 92.2055 32.0712C92.2055 32.4063 92.1769 32.7414 92.1769 33.107V34.8739H96.8937V33.107H93.8349V18.3927H93.8635ZM91.548 29.299C91.205 30.1215 90.7762 30.8526 90.1759 31.4619C89.6041 32.0712 88.9181 32.5586 88.1462 32.9242C87.3744 33.2898 86.5454 33.4421 85.6306 33.4421C84.7158 33.4421 83.8868 33.2593 83.0864 32.9242C82.3145 32.5586 81.6285 32.0712 81.0567 31.4619C80.485 30.8526 80.0562 30.1215 79.7132 29.299C79.3701 28.4764 79.2272 27.5929 79.2272 26.6486C79.2272 25.7042 79.3987 24.8207 79.7132 23.9677C80.0562 23.1147 80.485 22.414 81.0567 21.7743C81.6285 21.165 82.286 20.6775 83.0864 20.312C83.8582 19.9464 84.7158 19.7941 85.6306 19.7941C86.5454 19.7941 87.3744 19.9769 88.1462 20.312C88.9181 20.6775 89.6041 21.165 90.1759 21.7743C90.7476 22.3835 91.205 23.1147 91.548 23.9677C91.8911 24.8207 92.034 25.7042 92.034 26.6486C92.0626 27.5929 91.8911 28.4764 91.548 29.299Z" fill="#FF00FF"/>
<path d="M104.376 23.1281C104.376 22.6407 104.376 22.1837 104.348 21.7572C104.319 21.3612 104.29 20.9042 104.262 20.3863L104.233 18.8327H99.888V20.5996H102.861V33.5774H99.6307V35.3443H107.549V33.5774H104.49V26.2964C104.49 25.4434 104.662 24.6513 104.976 23.9202C105.319 23.1891 105.748 22.5493 106.32 22.0314C106.892 21.5135 107.549 21.087 108.321 20.7824C109.093 20.4777 109.893 20.295 110.78 20.2645L110.894 18.4976C109.607 18.528 108.378 18.9545 107.149 19.7466C105.948 20.5691 105.005 21.6963 104.376 23.1281Z" fill="#FF00FF"/>
<path d="M118.555 23.1281C118.555 22.6407 118.555 22.1837 118.526 21.7572C118.498 21.3612 118.469 20.9042 118.441 20.3863L118.412 18.8327H114.067V20.5996H117.04V33.5774H113.81V35.3443H121.728V33.5774H118.669V26.2964C118.669 25.4434 118.841 24.6513 119.155 23.9202C119.498 23.1891 119.927 22.5493 120.499 22.0314C121.071 21.5135 121.728 21.087 122.5 20.7824C123.272 20.4777 124.072 20.295 124.958 20.2645L125.073 18.4976C123.786 18.528 122.557 18.9545 121.328 19.7466C120.127 20.5691 119.213 21.6963 118.555 23.1281Z" fill="#FF00FF"/>
<path d="M141.91 20.5862C141.167 19.8245 140.31 19.1848 139.309 18.7278C138.308 18.2709 137.251 18.0576 136.136 18.0576C135.021 18.0576 133.963 18.2709 132.991 18.7278C132.019 19.1848 131.162 19.7941 130.447 20.5862C129.704 21.3782 129.132 22.2922 128.703 23.3279C128.275 24.3942 128.074 25.4909 128.074 26.679C128.074 27.8671 128.275 28.9943 128.703 30.0301C129.132 31.0659 129.704 31.9798 130.447 32.7414C131.162 33.503 132.019 34.1123 132.991 34.5693C133.963 35.0262 135.021 35.2395 136.136 35.2395C137.251 35.2395 138.308 35.0262 139.309 34.5693C140.31 34.1123 141.167 33.503 141.91 32.7414C142.654 31.9798 143.225 31.0659 143.654 30.0301C144.083 28.9943 144.283 27.8671 144.283 26.679C144.283 25.5214 144.083 24.3942 143.654 23.3279C143.254 22.2922 142.654 21.3782 141.91 20.5862ZM141.996 29.3294C141.653 30.152 141.196 30.8831 140.624 31.4924C140.052 32.1017 139.366 32.5891 138.566 32.9547C137.765 33.3202 136.936 33.4726 136.05 33.4726C135.164 33.4726 134.335 33.2898 133.563 32.9547C132.791 32.5891 132.105 32.1017 131.533 31.4924C130.962 30.8831 130.504 30.152 130.161 29.3294C129.818 28.5069 129.675 27.6234 129.675 26.679C129.675 25.7346 129.847 24.8512 130.161 24.0286C130.504 23.2061 130.962 22.4749 131.533 21.8657C132.105 21.2564 132.791 20.7385 133.563 20.3729C134.335 20.0073 135.164 19.8245 136.05 19.8245C136.936 19.8245 137.765 20.0073 138.566 20.3729C139.366 20.7385 140.024 21.2259 140.624 21.8657C141.196 22.4749 141.653 23.2061 141.996 24.0286C142.339 24.8512 142.482 25.7346 142.482 26.679C142.482 27.6234 142.339 28.5069 141.996 29.3294Z" fill="#FF00FF"/>
<path d="M157.176 20.4284V18.6614H152.43V7.93799H150.801V18.6614H147.199V20.4284H150.801V35.1426H155.832V33.4062H152.43V20.4284H157.176Z" fill="#FF00FF"/>
</g>
<g style="mix-blend-mode:darken">
<path d="M45.3756 14.6296C45.0448 13.8022 44.7741 12.9113 44.4734 11.9248C43.0298 7.24724 41.2254 1.42412 33.0753 0.151308C25.7975 -0.962403 16.8354 4.09703 14.3994 14.5023C14.0987 15.8069 13.9183 17.0161 13.8882 18.1934C13.8882 18.1934 13.8882 18.1934 13.8882 18.2253C13.8882 18.2889 13.2566 23.9847 8.38466 25.1303C1.25714 26.7849 -0.216485 32.0671 0.0241062 34.6127C0.0541801 35.0264 0.384993 35.3446 0.775954 35.3446H41.1663C41.4069 35.3446 41.7257 35.2831 41.8761 35.0921C42.0265 34.9012 41.9783 34.6127 41.9182 34.39C41.9182 34.3582 41.2254 30.5397 43.1802 28.0896C45.5861 25.0348 47.3003 19.5299 45.3756 14.6296ZM40.263 33.499L1.5278 33.6899C1.67817 31.4943 3.27209 27.9623 8.6854 26.6895C11.6326 25.9894 13.3168 23.9529 14.2491 22.0755C14.5197 23.0938 14.9408 24.0166 15.5122 24.8121C17.1362 27.135 19.8428 28.4396 23.5419 28.6942C23.9629 28.726 24.3238 28.376 24.3539 27.9305C24.384 27.485 24.0532 27.1031 23.6321 27.0713C23.572 27.0713 23.5118 27.0713 23.4517 27.0713C18.9406 25.6712 22.6397 23.8893 19.6924 21.1846C18.3993 19.9754 15.422 16.9524 15.8731 14.9159C18.0685 5.40166 26.2185 0.755897 32.8348 1.77415C36.594 2.34691 38.8195 4.00157 40.263 6.06989C39.2405 6.10171 38.4285 6.99268 38.4285 8.07457C38.4285 9.18828 39.2706 10.0793 40.3232 10.0793C40.9848 10.0793 41.5562 9.72923 41.887 9.18828C42.308 10.2702 42.6689 11.3839 42.9997 12.4658C43.3005 13.4522 43.6012 14.4068 43.932 15.2978C45.8868 20.2299 43.4809 25.1621 41.9471 27.1031C40.2329 29.2351 40.1728 32.0353 40.263 33.499Z" fill="#FFFF00"/>
<path d="M37.6165 10.2066C37.3158 9.47468 36.9248 8.77463 36.3233 8.23369C35.8121 7.7882 35.2407 7.56546 34.579 7.69275C34.0978 7.78821 33.6768 8.07459 33.3159 8.42461C32.7746 8.99738 32.4137 9.72924 32.113 10.4929C31.6919 11.6385 31.5115 12.8158 31.4814 14.025C31.4514 14.6296 31.4814 15.2342 31.6017 15.8069C31.8122 16.8888 32.1431 17.9071 32.534 18.9253C33.1656 20.5163 33.9475 22.0119 34.8196 23.4438C34.8798 23.5393 34.9098 23.5711 34.97 23.4438C35.361 22.8074 35.7218 22.171 36.0827 21.5028C36.7744 20.1981 37.3759 18.8935 37.827 17.4934C38.1578 16.4752 38.3984 15.4251 38.3683 14.2477C38.3683 13.9614 38.3383 13.5795 38.3082 13.2295C38.218 12.2112 38.0075 11.193 37.6165 10.2066Z" fill="#FFFF00"/>
<path d="M27.0004 10.0475C28.0468 10.0475 28.895 9.14993 28.895 8.04277C28.895 6.93562 28.0468 6.03809 27.0004 6.03809C25.954 6.03809 25.1057 6.93562 25.1057 8.04277C25.1057 9.14993 25.954 10.0475 27.0004 10.0475Z" fill="#FFFF00"/>
</g>
<g style="mix-blend-mode:darken">
<path d="M45.9771 14.6296C45.6463 13.8022 45.3757 12.9113 45.0749 11.9248C43.6314 7.24724 41.8269 1.42412 33.6769 0.151308C26.399 -0.962403 17.437 4.09703 15.001 14.5023C14.7003 15.8069 14.5198 17.0161 14.4898 18.1934C14.4898 18.1934 14.4898 18.1934 14.4898 18.2253C14.4898 18.2889 13.8582 23.9847 8.98622 25.1303C1.8587 26.7849 0.385077 32.0671 0.625669 34.6127C0.655743 35.0264 0.986556 35.3446 1.37752 35.3446H41.7445C41.9851 35.3446 42.1957 35.2491 42.346 35.0582C42.4964 34.8673 42.5565 34.6127 42.4964 34.39C42.4964 34.3582 41.827 30.5397 43.7818 28.0896C46.1877 25.0348 47.932 19.5299 45.9771 14.6296ZM40.8947 33.499L2.15944 33.6899C2.30981 31.4943 3.90372 27.9623 9.31703 26.6895C12.2643 25.9894 13.9183 23.9847 14.8807 22.1073C14.9108 22.2028 14.9709 22.2983 15.001 22.3937C15.2717 23.2847 15.6626 24.0802 16.1438 24.8121C17.7678 27.135 20.4745 28.4396 24.1736 28.6942C24.5946 28.726 24.9555 28.376 24.9855 27.9305C25.0156 27.485 24.6848 27.1031 24.2638 27.0713C23.3014 27.0077 22.3992 26.8804 21.6173 26.6577C20.2639 26.1803 19.6023 25.4167 19.1813 24.8121C17.7077 22.6483 19.6324 22.0437 18.0986 17.3343C17.1363 14.3432 20.8353 0.660436 33.4664 1.77415C37.2557 2.09235 39.4511 4.00157 40.8947 6.06989C39.8721 6.10171 39.0601 6.99268 39.0601 8.07457C39.0601 9.18828 39.9022 10.0793 40.9548 10.0793C41.6164 10.0793 42.1878 9.72923 42.5187 9.18828C42.9397 10.2702 43.3006 11.3839 43.6314 12.4658C43.9321 13.4522 44.2329 14.4068 44.5637 15.2978C46.5185 20.2299 44.1126 25.1621 42.5788 27.1031C40.8646 29.2351 40.7744 32.0353 40.8947 33.499Z" fill="#00AEEF"/>
<path d="M38.2181 10.2066C37.9173 9.47468 37.5264 8.77463 36.9249 8.23369C36.4136 7.7882 35.8422 7.56546 35.1806 7.69275C34.6994 7.78821 34.2784 8.07459 33.9175 8.42461C33.3762 8.99738 33.0153 9.72924 32.7145 10.4929C32.2935 11.6385 32.1131 12.8158 32.083 14.025C32.0529 14.6296 32.083 15.2342 32.2033 15.8069C32.4138 16.8888 32.7446 17.9071 33.1356 18.9253C33.7671 20.5163 34.549 22.0119 35.4212 23.4438C35.4813 23.5393 35.5114 23.5711 35.5716 23.4438C35.9625 22.8074 36.3234 22.171 36.6843 21.5028C37.376 20.1981 37.9775 18.8935 38.4286 17.4934C38.7594 16.4752 39 15.4251 38.9699 14.2477C38.9699 13.9614 38.9398 13.5795 38.9098 13.2295C38.8195 12.2112 38.609 11.193 38.2181 10.2066Z" fill="#00AEEF"/>
<path d="M27.632 10.0475C28.6784 10.0475 29.5266 9.14993 29.5266 8.04278C29.5266 6.93562 28.6784 6.03809 27.632 6.03809C26.5856 6.03809 25.7373 6.93562 25.7373 8.04278C25.7373 9.14993 26.5856 10.0475 27.632 10.0475Z" fill="#00AEEF"/>
</g>
<g style="mix-blend-mode:darken">
<path d="M46.4883 14.6296C46.1574 13.8022 45.8868 12.9113 45.586 11.9248C44.1425 7.24724 42.3381 1.42412 34.188 0.151308C26.9101 -0.962403 17.9481 4.09703 15.5121 14.5023C15.2114 15.8069 15.0309 17.0161 15.0009 18.1934C15.0009 18.1934 15.0009 18.1934 15.0009 18.2253C15.0009 18.2889 14.3693 23.9847 9.49733 25.1303C2.36981 26.7849 0.896186 32.0671 1.13678 34.6127C1.16685 35.0264 1.49766 35.3446 1.88863 35.3446H42.2535C42.4941 35.3446 42.6989 35.2257 42.8493 35.0348C42.9997 34.8439 43.0598 34.39 42.9997 34.1672C42.9997 34.3348 42.3381 30.5397 44.2929 28.0896C46.6988 25.0348 48.413 19.5299 46.4883 14.6296ZM41.3757 33.499L2.64047 33.6899C2.79084 31.4943 4.38476 27.9623 9.79807 26.6895C12.7453 25.9894 14.4295 23.9529 15.3617 22.0755C15.6324 23.0938 16.0534 24.0166 16.6248 24.8121C17.9782 26.7849 20.1134 27.9941 22.9704 28.4714C23.6922 28.6305 24.3538 28.6942 24.9253 28.6942C26.038 28.6942 25.7673 25.003 22.7599 24.9394C20.0834 24.8757 16.9256 23.9847 16.5346 19.0208C16.5346 18.5117 16.5346 18.0025 16.5948 17.4616C16.685 16.6342 16.8053 15.7751 17.0158 14.8841C19.2112 5.36985 27.3612 0.724074 33.9775 1.74233C37.7367 2.31509 39.9622 3.96975 41.4058 6.03807C40.3833 6.06989 39.5713 6.96087 39.5713 8.04276C39.5713 9.15647 40.4133 10.0474 41.4659 10.0474C42.1275 10.0474 42.6989 9.69742 43.0298 9.15647C43.4508 10.2384 43.8117 11.3521 44.1425 12.434C44.4432 13.4204 44.744 14.375 45.0748 15.266C47.0296 20.1981 44.6237 25.1303 43.0899 27.0713C41.3456 29.2351 41.2554 32.0353 41.3757 33.499Z" fill="#FF00FF"/>
<path d="M38.7292 10.2066C38.4284 9.47468 38.0375 8.77463 37.436 8.23369C36.9247 7.7882 36.3533 7.56546 35.6917 7.69275C35.2105 7.78821 34.7895 8.07459 34.4286 8.42461C33.8873 8.99738 33.5264 9.72924 33.2256 10.4929C32.8046 11.6385 32.6242 12.8158 32.5941 14.025C32.564 14.6296 32.5941 15.2342 32.7144 15.8069C32.9249 16.8888 33.2557 17.9071 33.6467 18.9253C34.2782 20.5163 35.0602 22.0119 35.9323 23.4438C35.9924 23.5393 36.0225 23.5711 36.0827 23.4438C36.4736 22.8074 36.8345 22.171 37.1954 21.5028C37.8871 20.1981 38.4886 18.8935 38.9397 17.4934C39.2705 16.4752 39.5111 15.4251 39.481 14.2477C39.481 13.9614 39.4509 13.5795 39.4209 13.2295C39.3307 12.2112 39.1201 11.193 38.7292 10.2066Z" fill="#FF00FF"/>
<path d="M28.1132 10.0475C29.1596 10.0475 30.0078 9.14993 30.0078 8.04278C30.0078 6.93562 29.1596 6.03809 28.1132 6.03809C27.0668 6.03809 26.2185 6.93562 26.2185 8.04278C26.2185 9.14993 27.0668 10.0475 28.1132 10.0475Z" fill="#FF00FF"/>
</g>
</svg>
